<svg width="154" height="22" viewBox="0 0 154 22" fill="none" xmlns="http://www.w3.org/2000/svg">
<path d="M0.624 6.31H5.46V21H9.906V6.31H14.742V2.748H0.624V6.31ZM29.4273 21H34.1333L27.5293 2.748H22.3813L15.7773 21H20.4313L21.5233 17.776H28.3353L29.4273 21ZM27.1913 14.344H22.6933L24.9293 7.662L27.1913 14.344ZM36.1433 21H40.5893V6.492H36.1433V21ZM38.3793 4.984C39.9393 4.984 41.0053 3.918 41.0053 2.592C41.0053 1.24 39.9393 0.173998 38.3793 0.173998C36.7933 0.173998 35.7273 1.24 35.7273 2.592C35.7273 3.918 36.7933 4.984 38.3793 4.984ZM47.4772 21H52.8592L55.8752 8.988L58.7872 21H64.1692L68.9272 2.748H64.1432L61.4912 16.034L58.3712 2.748H53.4832L50.2332 16.034L47.6072 2.748H42.8492L47.4772 21ZM83.6109 21H88.3169L81.7129 2.748H76.5649L69.9609 21H74.6149L75.7069 17.776H82.5189L83.6109 21ZM81.3749 14.344H76.8769L79.1129 7.662L81.3749 14.344ZM102.209 2.748V14.058L94.7728 2.748H90.3268V21H94.7728V9.742L102.209 21H106.655V2.748H102.209Z" fill="white"/>
<path d="M123.915 2.54C118.455 2.54 114.633 6.388 114.633 11.848C114.633 17.308 118.481 21.13 123.941 21.13C128.751 21.13 131.793 17.984 132.729 14.838V10.704H123.057V13.98H128.699C128.023 16.034 126.489 17.204 124.279 17.204C121.081 17.204 119.157 15.228 119.157 11.848C119.157 8.676 121.055 6.648 123.915 6.648C125.579 6.648 126.827 7.298 127.503 8.52H132.417C131.455 4.776 128.283 2.54 123.915 2.54ZM153.158 11.822C153.158 6.336 149.024 2.488 143.824 2.488C138.65 2.488 134.438 6.336 134.438 11.822C134.438 17.308 138.65 21.182 143.824 21.182C148.998 21.182 153.158 17.308 153.158 11.822ZM138.988 11.822C138.988 8.572 140.86 6.518 143.824 6.518C146.736 6.518 148.634 8.572 148.634 11.822C148.634 15.02 146.736 17.126 143.824 17.126C140.86 17.126 138.988 15.02 138.988 11.822Z" fill="#00D19F"/>
</svg>
